<?xml version="1.0" encoding="UTF-8"?><svg id="Layer_1" xmlns="http://www.w3.org/2000/svg" viewBox="0 0 853.28003 713.27654"><path d="M819.76001,262.70003c-21.47998-51.21002-52.22998-97.20001-91.40002-136.69002-39.16998-39.5-84.79999-70.52002-135.60999-92.19C540.13,11.38,484.25,0,426.64001,0c-57.59998,0-113.48999,11.38-166.10999,33.82001-50.81,21.66998-96.44,52.69-135.60999,92.19-39.17004,39.49001-69.92004,85.48-91.40002,136.69002C11.28003,315.72005,0,372.02003,0,430.05998s11.28003,114.34003,33.52002,167.35999c14.21646,33.89191,29.27573,57.69495,34.34248,65.4975,13.69688,21.09247,27.4276,37.84552,38.77187,50.35907,9.9072-1.41284,23.46944-4.04321,38.96948-9.31134,18.2562-6.2049,34.13535-14.34747,50.81619-25.10522,40.39996-26.05457,67.84427-57.05377,75.34998-64.01996,56.47998-52.42004,102.77002-113.05005,143.02997-178.5,35.20001-57.23001,65.21002-117.22,94.65002-177.50998,.79999-1.65002,1.65997-3.27002,2.48999-4.90002,.22998,1.89001-.29999,3.42004-.83002,4.95001-10.63995,30.65002-21.77997,61.13-31.81,91.97998-16.00995,49.24002-31.20996,98.74002-37.03998,150.49997-1.58002,14.10004-2.17999,28.29999,1.53998,42.22003,4.38,16.35999,15.23004,22.79999,31.67999,19.06,12.56-2.85004,23.98004-8.54999,34.07001-16.16003,19.01001-14.32001,38.10004-28.67999,55.79999-44.52997,43.52002-38.97003,82.75-82.19,121.52002-125.80997,2.03998-2.28998,4.09003-4.58002,6.13-6.87,.29999,.20001,.59998,.39996,.90002,.59998-.92004,1.88-1.81,3.77002-2.76001,5.64001-14.98004,29.53995-30.34003,58.88998-44.85999,88.64993-18.69,38.32001-36.04004,77.24005-46.93005,118.65002-5.01996,19.08002-8.77997,38.38-5.56995,58.25,2.47998,15.39001,12,33.17999,33.84998,30.28998,2.96002-.39996,5.91998-.94,8.81-1.69,17.33002-4.45996,32.65997-13.20996,47.58002-22.67999,41.48541-26.33154,150.2746-99.50177,153.00513-99.1759,10.75647-38.07275,16.25488-77.48077,16.25488-117.74408,0-58.03995-11.28003-114.33994-33.52002-167.35995Zm-343.04999-2.96003c-29.52002,64.12-59.60999,127.95001-95.84998,188.67004-44.46002,74.50995-97.84003,141.67999-163.45001,198.74994-19.15002,16.65002-39.32001,31.95001-62.54999,42.66003-7.57001,3.47998-15.32001,6.34998-23.5,7.34998-29.43005-33.01996-52.99005-70.39001-70.18005-111.34998-20.69-49.33002-31.17999-101.72998-31.17999-155.76001s10.48999-106.42999,31.17999-155.76001c19.99005-47.63995,48.60004-90.41998,85.04004-127.16998,36.42999-36.72998,78.84998-65.57001,126.07996-85.71002,48.88-20.84998,100.80005-31.41998,154.34003-31.41998,51.98999,0,102.45996,9.97003,150.08002,29.63-.69,1.37-1.38,2.73999-2.13,4.06-36.34003,63.5-67.32001,129.66998-97.88,196.04999Zm71.54999,193.66998c-19.03003,17.30005-38.70001,33.73004-61.73999,45.56-4.64001,2.38-9.48004,4.37006-14.92999,6.86005,.27997-1.97003,.33002-2.94,.56-3.88,7.06-28.23999,12.76996-56.90997,21.48999-84.63,20.45996-65.06,42.32001-129.67999,63.67999-194.45001,14.64001-44.38,29.45001-88.70996,44.08002-133.08997,1.92999-5.85004,3.02997-11.69,2.94995-17.48004,37.93005,19.17004,72.40002,44.27002,102.71002,74.83002,22.40002,22.59003,41.84003,47.46002,58.14001,74.34003-.16998,.19-.35004,.38995-.52002,.57996-18.60999,20.93005-37.26001,41.81-55.58002,62.98004-50.84998,58.76996-103.25995,116.03998-160.83997,168.37994Zm256.64417,88.88475c-64.87366,33.0943-110.53827,56.71985-129.08417,67.40527-3.23883,1.86609-11.92249,5.87616-23.87,10.13-10.41998,3.70996-21.21002,5.51996-32.73999,3.19995,.46997-1.78998,.83997-3.37,1.28998-4.92999,11.14001-39.13995,26.02002-76.88,42.82001-113.88995,37.25-82.08002,83.15002-159.67996,124.56-239.60001,1.45001,3.21002,2.85999,6.44,4.21997,9.69,7.88202,18.79257,14.28375,38.03067,19.18903,57.63467,12.20166,48.76413,12.02484,94.72729,11.99103,98.12531-.45581,45.82782-9.29578,84.19092-18.37585,112.23474Z"/></svg>