<?xml version="1.0" encoding="UTF-8"?><svg id="Layer_1" xmlns="http://www.w3.org/2000/svg" viewBox="0 0 853.27997 709.70996"><path d="M853.27997,430.06c0,40.26001-5.5,79.66998-16.25,117.73999-3.77002-.38-118.29999,77.15002-153.01001,99.17999-14.91998,9.47003-30.25,18.22003-47.57996,22.67999-2.89001,.75-5.85004,1.29004-8.81,1.69-21.85004,2.89001-31.37006-14.89996-33.85004-30.28998-3.21002-19.87,.54999-39.17004,5.57001-58.25,10.89001-41.41003,28.23999-80.33002,46.92999-118.65002,14.52002-29.76001,29.88-59.10999,44.85999-88.64996,.95001-1.87,1.84003-3.76001,2.76001-5.64001-.29999-.20001-.59998-.40002-.89996-.59998-2.04004,2.28998-4.09003,4.57996-6.13,6.87-38.77002,43.62-78,86.83997-121.52002,125.81-17.70001,15.84998-36.78998,30.20996-55.79999,44.52997-10.09003,7.60999-21.51001,13.31-34.07001,16.15997-16.45001,3.74005-27.29999-2.69995-31.67999-19.06-3.72003-13.91998-3.12-28.12-1.54004-42.21997,5.83002-51.76001,21.03003-101.26001,37.04004-150.5,10.02997-30.84998,21.16998-61.33002,31.81-91.97998l.00014-.00043c1.18442-3.49104,1.38519-5.15639,.89919-5.51686-.58508,1.25482-1.47418,3.15826-2.55937,5.4673-17.77159,37.81393-51.93143,108.06316-94.64996,177.50995-8.19556,13.32337-61.39897,96.457-143.02997,178.5-20.73599,20.84065-42.61172,40.89766-74.65001,59.24435-36.76762,21.05493-71.03889,30.76337-94.59999,35.62564-28.65002-33.64996-51.80005-71.28998-69-112.28998C11.27997,544.39996,0,488.09998,0,430.06s11.27997-114.34003,33.52002-167.35999c21.47998-51.21002,52.22998-97.20001,91.39996-136.69,39.16998-39.5,84.79999-70.52002,135.60999-92.19C313.14996,11.38,369.03998,0,426.64001,0c57.60999,0,113.48999,11.38,166.10999,33.82001,50.81,21.66998,96.44,52.69,135.60999,92.19,39.16998,39.48999,69.91998,85.47998,91.39996,136.69,22.24005,53.01996,33.52002,109.32001,33.52002,167.35999Z"/></svg>